<svg width="24" height="24" viewBox="0 0 24 24" fill="none" xmlns="http://www.w3.org/2000/svg">
<path d="M16.4859 19H20.4859C21.0163 19 21.525 18.7893 21.9001 18.4142C22.2752 18.0391 22.4859 17.5304 22.4859 17V5C22.4859 4.46957 22.2752 3.96086 21.9001 3.58579C21.525 3.21071 21.0163 3 20.4859 3H16.4859V5H20.4859V17H16.4859V19Z" fill="black"/>
<path d="M10.158 17.385L8.738 15.977L12.658 12.024H3.513C3.24778 12.024 2.99343 11.9186 2.80589 11.7311C2.61836 11.5436 2.513 11.2892 2.513 11.024C2.513 10.7588 2.61836 10.5044 2.80589 10.3169C2.99343 10.1293 3.24778 10.024 3.513 10.024H12.676L8.696 6.07698L10.104 4.65698L16.495 10.994L10.158 17.385Z" fill="black"/>
</svg>
