<svg width="122" height="34" viewBox="0 0 122 34" fill="none" xmlns="http://www.w3.org/2000/svg">
<path d="M15.6431 1.14153V16.5929H0.401946V1.14153H15.6431ZM16.0451 0.733398H0V17.0004H16.0457V0.733398H16.0451Z" fill="#979797"/>
<path d="M31.6876 1.14153V16.5929H16.4476V1.14153H31.6876ZM32.0895 0.733398H16.045V17.0004H32.0895V0.733398Z" fill="#979797"/>
<path d="M15.6431 17.4079V32.8592H0.401946V17.4079H15.6431ZM16.0451 17.0004H0V33.2667H16.0457V17.0004H16.0451Z" fill="#979797"/>
<path d="M31.6876 17.4079V32.8592H16.4476V17.4079H31.6876ZM32.0895 17.0004H16.045V33.2667H32.0895V17.0004Z" fill="#979797"/>
<path d="M5.05505 21.2805H10.1775V22.1738H5.94829V25.0075H10.141V25.8945H5.94829V29.449H10.141V30.3422H5.05505V21.2805Z" fill="#979797"/>
<path d="M18.9808 30.3422L20.2508 21.2805H20.3966L24.0303 28.7159L27.6276 21.2805H27.7734L29.0556 30.3422H28.1745L27.2995 23.8617L24.1397 30.3422H23.9149L20.7126 23.8124L19.8437 30.3422H18.9808Z" fill="#979797"/>
<path d="M4.36829 4.63953H5.34051L8.29973 11.6437L11.3136 4.63953H12.2859L8.39696 13.7012H8.20251L4.36829 4.63953Z" fill="#979797"/>
<path d="M21.1975 12.0133L21.9571 11.5513C22.4918 12.5493 23.1096 13.0483 23.8104 13.0483C24.1101 13.0483 24.3917 12.9784 24.655 12.8388C24.9183 12.6951 25.1188 12.5041 25.2566 12.2659C25.3943 12.0277 25.4632 11.7751 25.4632 11.5082C25.4632 11.2043 25.3619 10.9066 25.1593 10.615C24.8798 10.2125 24.3694 9.7279 23.6281 9.16116C22.8827 8.59031 22.4189 8.17757 22.2366 7.92295C21.9206 7.49584 21.7626 7.03382 21.7626 6.5369C21.7626 6.14264 21.8558 5.7833 22.0421 5.45886C22.2285 5.13442 22.4898 4.8798 22.826 4.69499C23.1663 4.50608 23.5349 4.41162 23.9319 4.41162C24.3532 4.41162 24.7461 4.5184 25.1107 4.73195C25.4794 4.9414 25.8683 5.32949 26.2774 5.89624L25.5482 6.45682C25.212 6.00507 24.9244 5.70732 24.6854 5.56358C24.4504 5.41984 24.1932 5.34798 23.9137 5.34798C23.5531 5.34798 23.2574 5.45886 23.0265 5.68063C22.7997 5.9024 22.6862 6.1755 22.6862 6.49994C22.6862 6.69707 22.7267 6.88803 22.8078 7.07284C22.8888 7.25765 23.0366 7.45888 23.2513 7.67654C23.3688 7.79153 23.7537 8.09338 24.4059 8.58209C25.1796 9.16116 25.7103 9.67656 25.9979 10.1283C26.2855 10.5801 26.4293 11.0339 26.4293 11.4897C26.4293 12.1468 26.1822 12.7177 25.688 13.2023C25.1978 13.6869 24.6003 13.9292 23.8954 13.9292C23.3526 13.9292 22.8604 13.7834 22.4189 13.4918C21.9773 13.1961 21.5702 12.7033 21.1975 12.0133Z" fill="#979797"/>
<path d="M38.6316 1.19824H56.4691V4.28763H41.7426V15.8002H56.3424V18.8902H41.7426V29.6644H56.3424V32.7531H38.6316V1.19824Z" fill="#979797"/>
<path d="M64.1841 32.7531V1.19824H70.6379C75.2924 1.19824 78.6712 1.57763 80.7729 2.33449C83.7919 3.40814 86.1513 5.26675 87.8517 7.9116C89.5502 10.5584 90.4001 13.711 90.4001 17.3726C90.4001 20.5329 89.7278 23.3151 88.3802 25.7166C87.0333 28.12 85.2831 29.8924 83.1335 31.0369C80.9808 32.1815 77.9662 32.7531 74.0859 32.7531H64.1841ZM67.1672 29.7717H70.7645C75.0669 29.7717 78.05 29.5002 79.7151 28.9573C82.0568 28.1858 83.8984 26.7966 85.2378 24.7886C86.5784 22.7805 87.2475 20.3273 87.2475 17.4263C87.2475 14.3823 86.5223 11.7827 85.0683 9.62459C83.6148 7.46643 81.59 5.98848 78.995 5.18755C77.0489 4.58845 73.8396 4.28826 69.3672 4.28826H67.1672V29.7717Z" fill="#979797"/>
<path d="M107.485 1.19824L122 32.7531H118.641L113.746 22.3711H100.337L95.4867 32.7531H92.0166L106.723 1.19824H107.485ZM107.092 7.90266L101.758 19.3245H112.401L107.092 7.90266Z" fill="#979797"/>
</svg>
