<svg width="186" height="72" viewBox="0 0 186 72" fill="none" xmlns="http://www.w3.org/2000/svg">
<path d="M167.368 59.6784H17.9324C14.6449 59.6784 11.955 56.9929 11.955 53.7106V17.9038C11.955 14.6215 14.6449 11.936 17.9324 11.936H167.368C170.656 11.936 173.345 14.6215 173.345 17.9038V53.7106C173.345 56.9929 170.656 59.6784 167.368 59.6784Z" fill="#979797"/>
<path d="M167.368 12.8909C170.141 12.8909 172.389 15.1348 172.389 17.9038V53.7106C172.389 56.4796 170.141 58.7235 167.368 58.7235H17.9324C15.1589 58.7235 12.9114 56.4796 12.9114 53.7106V17.9038C12.9114 15.1348 15.1589 12.8909 17.9324 12.8909H167.368ZM167.368 11.936H17.9324C14.6449 11.936 11.955 14.6215 11.955 17.9038V53.7106C11.955 56.9929 14.6449 59.6784 17.9324 59.6784H167.368C170.656 59.6784 173.345 56.9929 173.345 53.7106V17.9038C173.345 14.6215 170.656 11.936 167.368 11.936Z" fill="#A6A6A6"/>
<path d="M93.415 37.895C90.6056 37.895 88.3103 40.0315 88.3103 42.9676C88.3103 45.8919 90.6056 48.0403 93.415 48.0403C96.2244 48.0403 98.5197 45.8919 98.5197 42.9676C98.5197 40.0315 96.2244 37.895 93.415 37.895ZM93.415 46.047C91.8728 46.047 90.5458 44.7818 90.5458 42.9676C90.5458 41.1415 91.8728 39.8882 93.415 39.8882C94.9572 39.8882 96.2842 41.1415 96.2842 42.9676C96.2842 44.7818 94.9452 46.047 93.415 46.047ZM82.2731 37.895C79.4637 37.895 77.1684 40.0315 77.1684 42.9676C77.1684 45.8919 79.4637 48.0403 82.2731 48.0403C85.0825 48.0403 87.3778 45.8919 87.3778 42.9676C87.3778 40.0315 85.0825 37.895 82.2731 37.895ZM82.2731 46.047C80.7309 46.047 79.4039 44.7818 79.4039 42.9676C79.4039 41.1415 80.7309 39.8882 82.2731 39.8882C83.8153 39.8882 85.1423 41.1415 85.1423 42.9676C85.1423 44.7818 83.8153 46.047 82.2731 46.047ZM69.0271 39.4586V41.607H74.1916C74.0362 42.8125 73.6298 43.7076 73.0201 44.3164C72.2669 45.0683 71.0953 45.8919 69.0391 45.8919C65.8591 45.8919 63.3725 43.3376 63.3725 40.1628C63.3725 36.9879 65.8591 34.4337 69.0391 34.4337C70.7486 34.4337 72.0039 35.1021 72.9244 35.9734L74.4427 34.4576C73.1516 33.2282 71.442 32.2853 69.0271 32.2853C64.6756 32.2853 61.0174 35.8182 61.0174 40.1747C61.0174 44.5193 64.6756 48.0641 69.0271 48.0641C71.3822 48.0641 73.1516 47.3002 74.5383 45.856C75.9609 44.4357 76.4033 42.4305 76.4033 40.8192C76.4033 40.3179 76.3674 39.8524 76.2837 39.4705H69.0271V39.4586ZM123.195 41.1295C122.776 39.9957 121.485 37.895 118.843 37.895C116.225 37.895 114.049 39.9479 114.049 42.9676C114.049 45.8083 116.201 48.0403 119.094 48.0403C121.425 48.0403 122.776 46.6199 123.326 45.7964L121.593 44.6386C121.019 45.486 120.23 46.047 119.094 46.047C117.958 46.047 117.145 45.5218 116.631 44.5073L123.434 41.7025L123.195 41.1295ZM116.261 42.8244C116.201 40.867 117.779 39.8644 118.915 39.8644C119.799 39.8644 120.553 40.306 120.804 40.9386L116.261 42.8244ZM110.738 47.7419H112.973V32.8224H110.738V47.7419ZM107.079 39.0289H106.996C106.494 38.4321 105.537 37.895 104.318 37.895C101.771 37.895 99.4403 40.127 99.4403 42.9915C99.4403 45.8322 101.771 48.0522 104.318 48.0522C105.525 48.0522 106.494 47.5151 106.996 46.8944H107.067V47.6225C107.067 49.568 106.027 50.6064 104.354 50.6064C102.991 50.6064 102.142 49.6277 101.795 48.8041L99.8467 49.6158C100.409 50.9645 101.891 52.6116 104.354 52.6116C106.972 52.6116 109.183 51.0719 109.183 47.3241V38.2053H107.067V39.0289H107.079ZM104.509 46.047C102.967 46.047 101.676 44.758 101.676 42.9915C101.676 41.2012 102.967 39.9002 104.509 39.9002C106.027 39.9002 107.223 41.2131 107.223 42.9915C107.235 44.758 106.039 46.047 104.509 46.047ZM133.667 32.8224H128.323V47.7419H130.559V42.0844H133.679C136.154 42.0844 138.58 40.2941 138.58 37.4534C138.58 34.6127 136.13 32.8224 133.667 32.8224ZM133.715 40.0076H130.547V34.8872H133.715C135.388 34.8872 136.333 36.2718 136.333 37.4415C136.333 38.6111 135.388 40.0076 133.715 40.0076ZM147.511 37.8711C145.897 37.8711 144.223 38.5873 143.53 40.1508L145.514 40.9744C145.933 40.1508 146.722 39.8763 147.547 39.8763C148.694 39.8763 149.878 40.5686 149.89 41.7979V41.9531C149.483 41.7263 148.622 41.3802 147.558 41.3802C145.419 41.3802 143.255 42.5499 143.255 44.7341C143.255 46.7273 145 48.0164 146.961 48.0164C148.455 48.0164 149.292 47.348 149.806 46.5602H149.878V47.718H152.03V42.0008C152.042 39.3511 150.057 37.8711 147.511 37.8711ZM147.236 46.047C146.506 46.047 145.49 45.677 145.49 44.7818C145.49 43.636 146.758 43.1944 147.857 43.1944C148.838 43.1944 149.304 43.4092 149.89 43.6957C149.722 45.0683 148.527 46.047 147.236 46.047ZM159.884 38.1934L157.326 44.6625H157.254L154.6 38.1934H152.197L156.178 47.2406L153.907 52.2655H156.238L162.371 38.1934H159.884ZM139.8 47.7419H142.035V32.8224H139.8V47.7419Z" fill="white"/>
<path d="M24.3334 22.6049C24.3334 22.1478 24.423 21.7895 24.5622 21.5252L38.8772 35.8056L24.5596 50.0886C24.4232 49.8305 24.3334 49.4725 24.3334 49.0064V22.6049Z" stroke="white" stroke-width="0.895169"/>
<path d="M50.0017 34.4651L50.0029 34.4658C50.7581 34.8913 51.0303 35.3906 51.0303 35.7961C51.0303 36.2023 50.7573 36.7048 50.0014 37.1362C50.0012 37.1363 50.001 37.1364 50.0008 37.1365L44.3376 40.3509L39.7859 35.8066L44.3452 31.2546L50.0017 34.4651Z" stroke="white" stroke-width="0.895169"/>
<path d="M25.1279 50.6203L39.3333 36.4378L43.6457 40.7432L26.7032 50.3594L26.7028 50.3596C26.0343 50.7399 25.5047 50.774 25.1279 50.6203Z" stroke="white" stroke-width="0.895169"/>
<path d="M26.6897 21.2518L43.6439 30.868L39.3315 35.1735L25.1145 20.9908C25.4913 20.8371 26.0208 20.8713 26.6892 21.2515L26.6897 21.2518Z" stroke="white" stroke-width="0.895169"/>
<g opacity="0.2">
<mask id="path-8-inside-1" fill="white">
<path d="M44.2696 40.7361L26.9112 50.5829C25.9429 51.132 25.0702 51.0962 24.5202 50.5949L24.4366 50.6784L24.5202 50.762C25.0821 51.2633 25.9429 51.2991 26.9112 50.75L44.3772 40.8435L44.2696 40.7361Z"/>
</mask>
<path d="M44.2696 40.7361L26.9112 50.5829C25.9429 51.132 25.0702 51.0962 24.5202 50.5949L24.4366 50.6784L24.5202 50.762C25.0821 51.2633 25.9429 51.2991 26.9112 50.75L44.3772 40.8435L44.2696 40.7361Z" fill="black"/>
<path d="M44.2696 40.7361L44.9021 40.1026L44.4202 39.6215L43.828 39.9575L44.2696 40.7361ZM26.9112 50.5829L27.3527 51.3617L27.3529 51.3616L26.9112 50.5829ZM24.5202 50.5949L25.1233 49.9333L24.4921 49.358L23.8878 49.9614L24.5202 50.5949ZM24.4366 50.6784L23.8041 50.0449L23.1696 50.6784L23.8041 51.3119L24.4366 50.6784ZM24.5202 50.762L23.8878 51.3955L23.9055 51.4132L23.9243 51.4299L24.5202 50.762ZM26.9112 50.75L27.3527 51.5288L27.3528 51.5287L26.9112 50.75ZM44.3772 40.8435L44.8189 41.6221L45.8426 41.0415L45.0097 40.21L44.3772 40.8435ZM43.828 39.9575L26.4695 49.8043L27.3529 51.3616L44.7113 41.5147L43.828 39.9575ZM26.4697 49.8042C25.695 50.2435 25.2817 50.0777 25.1233 49.9333L23.9172 51.2564C24.8586 52.1146 26.1908 52.0205 27.3527 51.3617L26.4697 49.8042ZM23.8878 49.9614L23.8041 50.0449L25.069 51.3119L25.1527 51.2284L23.8878 49.9614ZM23.8041 51.3119L23.8878 51.3955L25.1527 50.1285L25.069 50.0449L23.8041 51.3119ZM23.9243 51.4299C24.8734 52.2767 26.1856 52.1905 27.3527 51.5288L26.4697 49.9713C25.7002 50.4076 25.2909 50.2499 25.1162 50.094L23.9243 51.4299ZM27.3528 51.5287L44.8189 41.6221L43.9356 40.0649L26.4696 49.9714L27.3528 51.5287ZM45.0097 40.21L44.9021 40.1026L43.6372 41.3696L43.7448 41.477L45.0097 40.21Z" fill="white" mask="url(#path-8-inside-1)"/>
</g>
<g opacity="0.12">
<mask id="path-10-inside-2" fill="white">
<path d="M24.4367 50.5113C24.09 50.1413 23.8868 49.5684 23.8868 48.8403V49.0194C23.8868 49.7594 24.09 50.3323 24.4367 50.6904L24.5204 50.6068L24.4367 50.5113Z"/>
</mask>
<path d="M24.4367 50.5113C24.09 50.1413 23.8868 49.5684 23.8868 48.8403V49.0194C23.8868 49.7594 24.09 50.3323 24.4367 50.6904L24.5204 50.6068L24.4367 50.5113Z" fill="black"/>
<path d="M24.4367 50.5113L25.1099 49.9213L25.1001 49.9101L25.0899 49.8993L24.4367 50.5113ZM24.4367 50.6904L23.7936 51.313L24.4259 51.9661L25.0692 51.3238L24.4367 50.6904ZM24.5204 50.6068L25.1529 51.2403L25.7465 50.6476L25.1936 50.0168L24.5204 50.6068ZM25.0899 49.8993C24.9418 49.7411 24.7819 49.413 24.7819 48.8403H22.9916C22.9916 49.7238 23.2383 50.5415 23.7835 51.1234L25.0899 49.8993ZM22.9916 48.8403V49.0194H24.7819V48.8403H22.9916ZM22.9916 49.0194C22.9916 49.9077 23.2349 50.736 23.7936 51.313L25.0798 50.0677C24.9451 49.9286 24.7819 49.6111 24.7819 49.0194H22.9916ZM25.0692 51.3238L25.1529 51.2403L23.8879 49.9733L23.8042 50.0569L25.0692 51.3238ZM25.1936 50.0168L25.1099 49.9213L23.7635 51.1013L23.8472 51.1968L25.1936 50.0168Z" fill="white" mask="url(#path-10-inside-2)"/>
</g>
<g opacity="0.12">
<mask id="path-12-inside-3" fill="white">
<path d="M50.2218 37.3569L44.2563 40.7347L44.3639 40.8421L50.2099 37.524C51.0467 37.0466 51.4651 36.4259 51.4651 35.8053C51.4053 36.3663 50.9869 36.9272 50.2218 37.3569Z"/>
</mask>
<path d="M50.2218 37.3569L44.2563 40.7347L44.3639 40.8421L50.2099 37.524C51.0467 37.0466 51.4651 36.4259 51.4651 35.8053C51.4053 36.3663 50.9869 36.9272 50.2218 37.3569Z" fill="black"/>
<path d="M50.2218 37.3569L49.7835 36.5764L49.7807 36.578L50.2218 37.3569ZM44.2563 40.7347L43.8153 39.9557L42.7904 40.536L43.6239 41.3682L44.2563 40.7347ZM44.3639 40.8421L43.7315 41.4756L44.2135 41.9568L44.8058 41.6206L44.3639 40.8421ZM50.2099 37.524L50.6517 38.3025L50.6534 38.3016L50.2099 37.524ZM51.4651 35.8053H52.3603L50.575 35.7105L51.4651 35.8053ZM49.7807 36.578L43.8153 39.9557L44.6974 41.5137L50.6629 38.1359L49.7807 36.578ZM43.6239 41.3682L43.7315 41.4756L44.9964 40.2086L44.8888 40.1012L43.6239 41.3682ZM44.8058 41.6206L50.6517 38.3025L49.768 36.7455L43.9221 40.0636L44.8058 41.6206ZM50.6534 38.3016C51.6467 37.7349 52.3603 36.8674 52.3603 35.8053H50.5699C50.5699 35.9845 50.4467 36.3583 49.7663 36.7465L50.6534 38.3016ZM50.575 35.7105C50.5569 35.8804 50.402 36.2291 49.7835 36.5764L50.6601 38.1374C51.5719 37.6254 52.2538 36.8521 52.3552 35.9001L50.575 35.7105Z" fill="white" mask="url(#path-12-inside-3)"/>
</g>
<g opacity="0.25">
<mask id="path-14-inside-4" fill="white">
<path d="M26.9116 21.0297L50.2235 34.2543C50.9767 34.684 51.4071 35.233 51.4788 35.8059C51.4788 35.1853 51.0604 34.5527 50.2235 34.0872L26.9116 20.8626C25.2379 19.9197 23.8751 20.7074 23.8751 22.6171V22.7961C23.8751 20.8745 25.2499 20.0868 26.9116 21.0297Z"/>
</mask>
<path d="M26.9116 21.0297L50.2235 34.2543C50.9767 34.684 51.4071 35.233 51.4788 35.8059C51.4788 35.1853 51.0604 34.5527 50.2235 34.0872L26.9116 20.8626C25.2379 19.9197 23.8751 20.7074 23.8751 22.6171V22.7961C23.8751 20.8745 25.2499 20.0868 26.9116 21.0297Z" fill="white"/>
<path d="M26.9116 21.0297L26.4698 21.8082L26.4699 21.8083L26.9116 21.0297ZM50.2235 34.2543L50.6671 33.4768L50.6652 33.4757L50.2235 34.2543ZM51.4788 35.8059L50.5905 35.9171L52.374 35.8059H51.4788ZM50.2235 34.0872L49.7818 34.8658L49.7884 34.8695L50.2235 34.0872ZM26.9116 20.8626L27.3533 20.084L27.351 20.0827L26.9116 20.8626ZM26.4699 21.8083L49.7818 35.0329L50.6652 33.4757L27.3533 20.2511L26.4699 21.8083ZM49.7799 35.0318C50.3988 35.3849 50.5671 35.7299 50.5905 35.9171L52.367 35.6947C52.247 34.7362 51.5546 33.9831 50.6671 33.4768L49.7799 35.0318ZM52.374 35.8059C52.374 34.7489 51.6665 33.8655 50.6587 33.3049L49.7884 34.8695C50.4542 35.2399 50.5836 35.6216 50.5836 35.8059H52.374ZM50.6652 33.3086L27.3533 20.084L26.4699 21.6412L49.7818 34.8658L50.6652 33.3086ZM27.351 20.0827C26.3474 19.5173 25.2352 19.3649 24.3178 19.895C23.398 20.4266 22.9799 21.467 22.9799 22.6171H24.7702C24.7702 21.8575 25.0335 21.5492 25.2136 21.4452C25.396 21.3397 25.8021 21.265 26.4722 21.6425L27.351 20.0827ZM22.9799 22.6171V22.7961H24.7702V22.6171H22.9799ZM24.7702 22.7961C24.7702 22.0316 25.0359 21.7192 25.2187 21.6134C25.4031 21.5066 25.8084 21.4329 26.4698 21.8082L27.3534 20.2511C26.353 19.6835 25.2401 19.5322 24.3216 20.064C23.4016 20.5967 22.9799 21.6391 22.9799 22.7961H24.7702Z" fill="white" mask="url(#path-14-inside-4)"/>
</g>
<path d="M62.2954 28.9694H61.4108V26.5704H62.1161C62.7378 26.0333 63.0366 25.1262 63.0247 23.8252V20.2922H67.8186V26.5704H68.6195V28.9694H67.7349V27.4536H62.2954V28.9694ZM63.9572 23.8371C63.9691 24.971 63.742 25.8781 63.2757 26.5823H66.898V21.1755H63.9572V23.8371Z" fill="white" stroke="white" stroke-width="0.179034" stroke-miterlimit="10"/>
<path d="M75.8039 26.5219C75.0986 27.25 74.2259 27.608 73.1739 27.608C72.1219 27.608 71.2491 27.25 70.5438 26.5219C69.8385 25.7938 69.4918 24.9106 69.4918 23.8722C69.4918 22.8338 69.8385 21.9386 70.5438 21.2225C71.2491 20.4944 72.1219 20.1364 73.1739 20.1364C74.2139 20.1364 75.0867 20.4944 75.8039 21.2225C76.5093 21.9506 76.8679 22.8338 76.8679 23.8722C76.8679 24.9225 76.5093 25.8058 75.8039 26.5219ZM71.2252 25.9251C71.7513 26.4622 72.4088 26.7248 73.1739 26.7248C73.939 26.7248 74.5965 26.4622 75.1225 25.9251C75.6485 25.388 75.9235 24.7077 75.9235 23.8722C75.9235 23.0367 75.6605 22.3564 75.1225 21.8193C74.5965 21.2822 73.939 21.0196 73.1739 21.0196C72.4088 21.0196 71.7513 21.2822 71.2252 21.8193C70.6992 22.3564 70.4243 23.0367 70.4243 23.8722C70.4243 24.7077 70.6992 25.388 71.2252 25.9251Z" fill="white" stroke="white" stroke-width="0.179034" stroke-miterlimit="10"/>
<path d="M81.5071 27.6081C80.455 27.6081 79.5704 27.25 78.8531 26.5339C78.1358 25.8178 77.7772 24.9345 77.7772 23.8603C77.7772 22.7861 78.1358 21.9029 78.8531 21.1868C79.5704 20.4706 80.455 20.1125 81.5071 20.1125C82.583 20.1125 83.4677 20.5064 84.1371 21.2822L83.4916 21.9029C83.0014 21.2942 82.3439 20.9958 81.4951 20.9958C80.7181 20.9958 80.0486 21.2584 79.5106 21.7835C78.9726 22.3087 78.7096 23.001 78.7096 23.8484C78.7096 24.6958 78.9726 25.3881 79.5106 25.9132C80.0486 26.4384 80.7061 26.701 81.4951 26.701C82.3559 26.701 83.0851 26.3549 83.6948 25.6626L84.3404 26.3071C84.0176 26.701 83.5992 27.0113 83.109 27.2381C82.6189 27.5007 82.0809 27.6081 81.5071 27.6081Z" fill="white" stroke="white" stroke-width="0.179034" stroke-miterlimit="10"/>
<path d="M88.0813 27.4531H87.1608V21.175H85.1524V20.2917H90.0778V21.175H88.0694V27.4531H88.0813Z" fill="white" stroke="white" stroke-width="0.179034" stroke-miterlimit="10"/>
<path d="M96.414 20.2917L93.7003 26.3312C93.3297 27.1786 92.7678 27.6083 92.0266 27.6083C91.8114 27.6083 91.5723 27.5605 91.3093 27.4531L91.5484 26.6057C91.7038 26.6892 91.8592 26.737 92.0266 26.737C92.2418 26.737 92.4092 26.7012 92.5287 26.6176C92.6483 26.5341 92.7558 26.3789 92.8515 26.1641L93.1145 25.5911L90.6996 20.2917H91.7875L93.5568 24.3976H93.5927L95.3261 20.2917H96.414Z" fill="white" stroke="white" stroke-width="0.179034" stroke-miterlimit="10"/>
<path d="M97.4542 27.4531V20.2917H102.643V27.4531H101.722V21.175H98.3747V27.4531H97.4542Z" fill="white" stroke="white" stroke-width="0.179034" stroke-miterlimit="10"/>
<path d="M104.281 27.4531V20.2917H105.201V23.3592H108.788V20.2917H109.708V27.4531H108.788V24.2186H105.201V27.4531H104.281Z" fill="white" stroke="white" stroke-width="0.179034" stroke-miterlimit="10"/>
<path d="M117.229 26.5219C116.524 27.25 115.651 27.608 114.599 27.608C113.547 27.608 112.674 27.25 111.969 26.5219C111.263 25.7938 110.917 24.9106 110.917 23.8722C110.917 22.8338 111.263 21.9386 111.969 21.2225C112.674 20.4944 113.547 20.1364 114.599 20.1364C115.639 20.1364 116.512 20.4944 117.229 21.2225C117.934 21.9506 118.293 22.8338 118.293 23.8722C118.281 24.9225 117.934 25.8058 117.229 26.5219ZM112.65 25.9251C113.176 26.4622 113.834 26.7248 114.599 26.7248C115.364 26.7248 116.021 26.4622 116.547 25.9251C117.073 25.388 117.348 24.7077 117.348 23.8722C117.348 23.0367 117.085 22.3564 116.547 21.8193C116.021 21.2822 115.364 21.0196 114.599 21.0196C113.834 21.0196 113.176 21.2822 112.65 21.8193C112.124 22.3564 111.849 23.0367 111.849 23.8722C111.849 24.7077 112.112 25.388 112.65 25.9251Z" fill="white" stroke="white" stroke-width="0.179034" stroke-miterlimit="10"/>
<path d="M122.045 27.4531V20.2917H124.639C125.201 20.2917 125.691 20.4827 126.098 20.8408C126.504 21.2108 126.719 21.6763 126.719 22.2372C126.719 22.5834 126.636 22.8818 126.456 23.1324C126.277 23.395 126.05 23.586 125.751 23.7173V23.7531C126.11 23.8724 126.397 24.0753 126.624 24.3737C126.851 24.6721 126.971 25.0063 126.971 25.4002C126.971 25.985 126.755 26.4744 126.325 26.8563C125.895 27.2383 125.381 27.4412 124.795 27.4412H122.045V27.4531ZM122.966 23.3592H124.639C124.986 23.3592 125.261 23.2398 125.476 23.0131C125.691 22.7863 125.787 22.5356 125.787 22.2611C125.787 21.9866 125.691 21.736 125.476 21.5092C125.273 21.2824 125.01 21.163 124.675 21.163H122.966V23.3592ZM122.966 26.5699H124.819C125.177 26.5699 125.464 26.4505 125.679 26.1999C125.895 25.9492 126.014 25.6866 126.014 25.3882C126.014 25.0899 125.907 24.8273 125.667 24.5886C125.44 24.3498 125.141 24.2186 124.771 24.2186H122.954V26.5699H122.966Z" fill="white" stroke="white" stroke-width="0.179034" stroke-miterlimit="10"/>
</svg>
